#N canvas 260 303 671 595 10;
#X obj 122 498 hip~ 5;
#X obj 122 405 *~;
#X obj 122 210 +~;
#X obj 122 157 samphold~;
#X obj 122 183 *~;
#X obj 223 311 -~ 0.5;
#X obj 223 335 *~ 0.5;
#X obj 223 358 cos~;
#X obj 122 474 +~;
#X obj 122 234 *~ 44100;
#X obj 122 260 +~ 1;
#X obj 308 391 *~;
#X obj 308 223 +~;
#X obj 308 157 samphold~;
#X obj 308 195 *~;
#X obj 404 310 -~ 0.5;
#X obj 404 334 *~ 0.5;
#X obj 404 357 cos~;
#X obj 308 247 *~ 44100;
#X obj 308 273 +~ 1;
#X obj 122 529 outlet~;
#X obj 122 331 tabread4~ \$2;
#X obj 308 330 tabread4~ \$2;
#X obj 223 85 inlet~ phase1;
#X obj 404 90 inlet~ phase2;
#X obj 173 133 *~ 1;
#X obj 359 137 *~ 1;
#X obj 137 57 inlet~ readpoint;
#X obj 308 21 r \$1-chunk-size;
#X obj 377 264 r \$1-setLoopStart;
#X connect 0 0 20 0;
#X connect 1 0 8 0;
#X connect 2 0 9 0;
#X connect 3 0 4 0;
#X connect 4 0 2 0;
#X connect 5 0 6 0;
#X connect 6 0 7 0;
#X connect 7 0 1 1;
#X connect 8 0 0 0;
#X connect 9 0 10 0;
#X connect 10 0 21 0;
#X connect 11 0 8 1;
#X connect 12 0 18 0;
#X connect 13 0 14 0;
#X connect 14 0 12 0;
#X connect 15 0 16 0;
#X connect 16 0 17 0;
#X connect 17 0 11 1;
#X connect 18 0 19 0;
#X connect 19 0 22 0;
#X connect 21 0 1 0;
#X connect 22 0 11 0;
#X connect 23 0 5 0;
#X connect 23 0 25 0;
#X connect 24 0 15 0;
#X connect 24 0 26 0;
#X connect 25 0 3 1;
#X connect 25 0 4 1;
#X connect 26 0 13 1;
#X connect 26 0 14 1;
#X connect 27 0 2 1;
#X connect 27 0 12 1;
#X connect 28 0 13 0;
#X connect 28 0 3 0;
#X connect 29 0 21 1;
#X connect 29 0 22 1;
