#N canvas 836 273 718 417 10;
#X obj 272 246 *~;
#X obj 369 245 *~;
#X obj 204 102 inlet~ readsignal;
#X obj 204 298 outlet~;
#X obj 272 298 outlet~ left;
#X obj 287 219 inlet~ left;
#X obj 384 219 inlet~ right;
#X obj 369 298 outlet~ right;
#X obj 272 174 tabread~ \$1-adsr;
#X obj 272 152 *~ 100;
#X connect 0 0 4 0;
#X connect 1 0 7 0;
#X connect 2 0 3 0;
#X connect 2 0 9 0;
#X connect 5 0 0 1;
#X connect 6 0 1 1;
#X connect 8 0 1 0;
#X connect 8 0 0 0;
#X connect 9 0 8 0;
