#N canvas 260 286 487 346 10;
#X obj 105 50 inlet~ left;
#X obj 275 50 inlet~ right;
#X obj 105 260 outlet~ left;
#X obj 275 260 outlet~ right;
#X obj 120 150 r \$1-leftLevel;
#X obj 290 150 r \$1-rightLevel;
#X obj 105 208 *~;
#X obj 275 208 *~;
#X obj 290 172 lop~ 20;
#X obj 120 172 lop~ 20;
#X obj 105 82 hip~ 5;
#X obj 275 82 hip~ 5;
#X connect 0 0 10 0;
#X connect 1 0 11 0;
#X connect 4 0 9 0;
#X connect 5 0 8 0;
#X connect 6 0 2 0;
#X connect 7 0 3 0;
#X connect 8 0 7 1;
#X connect 9 0 6 1;
#X connect 10 0 6 0;
#X connect 11 0 7 0;
