#N canvas 552 168 1180 689 10;
#X obj 538 219 phasor~;
#X obj 279 183 phasor~;
#X obj 480 283 *~;
#X msg 731 130 0;
#X obj 731 92 t b b;
#X msg 758 130 1;
#X msg 789 130 0;
#X text 984 63 Arguments:;
#X text 984 83 1: \$0;
#X obj 279 117 sig~;
#X obj 495 261 sig~;
#X obj 72 203 loadbang;
#X obj 279 223 min~ 1;
#X obj 279 203 *~ 100;
#X obj 279 161 *~ 0.01;
#X msg 295 541 bang;
#X msg 73 224 8;
#X obj 597 263 +~ 0.5;
#X obj 597 287 wrap~;
#X obj 538 283 *~ 1;
#X obj 332 160 r \$0-sync;
#X obj 577 197 r \$0-sync;
#X obj 758 222 switch~ 64 1 8;
#X obj 553 172 r \$0-bounce-upsampling;
#X obj 311 117 r \$0-bounce-upsampling;
#X obj 73 246 s \$0-bounce-upsampling;
#X obj 538 195 * 8;
#X obj 279 139 *~ 8;
#X obj 279 61 r \$1-read-phasor;
#X obj 538 114 r \$1-phase-phasor;
#X obj 731 159 s \$0-sync;
#X obj 758 194 u_delswitch 0 100;
#X text 984 103 2: Input Array name;
#X text 984 123 3: Output Array name;
#X obj 346 357 array-player \$1 \$2-L;
#X obj 480 357 array-player \$1 \$2-L;
#X obj 414 598 tabwrite~ \$3-R;
#X obj 279 597 tabwrite~ \$3-L;
#X obj 279 392 attacksustainrelease \$1;
#X obj 279 422 smoothedges -----------;
#X obj 279 452 balance \$1 ------------;
#X obj 279 93 unpack float float;
#N canvas 153 91 711 433 run-once 0;
#X obj 118 61 inlet~ readsignal;
#X obj 236 184 dbtorms;
#X obj 236 228 change -1;
#X msg 324 184 -1;
#X obj 236 260 sel 0;
#X obj 236 162 env~ 64;
#X text 261 17 This patch ensures that the phasor~ only does one cycle
;
#X text 261 29 because whe are bouncing;
#X obj 236 206 < 1;
#X obj 118 349 outlet~ readsignal;
#X obj 324 158 r \$1-startBounce;
#X obj 236 282 s \$1-stopBounce;
#X connect 0 0 5 0;
#X connect 0 0 9 0;
#X connect 1 0 8 0;
#X connect 2 0 4 0;
#X connect 3 0 2 0;
#X connect 4 0 11 0;
#X connect 5 0 1 0;
#X connect 8 0 2 0;
#X connect 10 0 3 0;
#X restore 279 329 pd run-once;
#X obj 731 65 r \$1-startBounce;
#X obj 789 86 r \$1-stopBounce;
#X obj 295 517 r \$1-startBounce;
#X connect 0 0 17 0;
#X connect 0 0 19 0;
#X connect 1 0 13 0;
#X connect 2 0 34 0;
#X connect 2 0 35 0;
#X connect 3 0 30 0;
#X connect 4 0 3 0;
#X connect 4 1 5 0;
#X connect 5 0 31 0;
#X connect 6 0 31 0;
#X connect 9 0 27 0;
#X connect 10 0 2 1;
#X connect 11 0 16 0;
#X connect 12 0 2 0;
#X connect 12 0 42 0;
#X connect 13 0 12 0;
#X connect 14 0 1 0;
#X connect 15 0 36 0;
#X connect 15 0 37 0;
#X connect 16 0 25 0;
#X connect 17 0 18 0;
#X connect 18 0 34 2;
#X connect 18 0 35 2;
#X connect 19 0 34 1;
#X connect 19 0 35 1;
#X connect 20 0 1 1;
#X connect 21 0 0 1;
#X connect 23 0 26 1;
#X connect 24 0 27 1;
#X connect 26 0 0 0;
#X connect 27 0 14 0;
#X connect 28 0 41 0;
#X connect 29 0 26 0;
#X connect 31 0 22 0;
#X connect 34 0 38 1;
#X connect 35 0 38 2;
#X connect 38 0 39 0;
#X connect 38 1 39 1;
#X connect 38 2 39 2;
#X connect 39 0 40 0;
#X connect 39 1 40 1;
#X connect 40 0 37 0;
#X connect 40 1 36 0;
#X connect 41 0 9 0;
#X connect 41 1 10 0;
#X connect 42 0 38 0;
#X connect 43 0 4 0;
#X connect 44 0 6 0;
#X connect 45 0 15 0;
