#N canvas 114 175 1068 579 10;
#X msg 621 150 0;
#X obj 648 235 switch~;
#X obj 621 112 t b b;
#X msg 648 150 1;
#X msg 679 150 0;
#X text 874 63 Arguments:;
#X text 874 83 1: \$0;
#X obj 621 87 del 200;
#X obj 679 104 t b b;
#X msg 706 125 stop;
#X obj 398 119 phasor~;
#X obj 139 123 phasor~;
#X obj 206 173 *~;
#X obj 139 77 sig~;
#X obj 221 151 sig~;
#X obj 457 153 +~ 0.5;
#X obj 457 177 wrap~;
#X obj 398 173 *~ 1;
#X obj 178 100 r \$0-sync;
#X obj 437 97 r \$0-sync;
#X obj 139 465 *~;
#X obj 274 465 *~;
#X obj 139 23 r \$1-read-phasor;
#X obj 139 55 unpack f f;
#X obj 747 235 s \$0-volume-ramp;
#X obj 289 390 r \$0-volume-ramp;
#X obj 289 412 unpack f f;
#X obj 289 435 line~;
#X obj 398 66 r \$1-phase-phasor;
#X obj 621 179 s \$0-sync;
#X obj 648 209 u_delswitch 20 50;
#X obj 206 247 array-player \$1 \$2-L;
#X obj 340 247 array-player \$1 \$2-R;
#X obj 274 505 throw~ \$3-R;
#X obj 139 505 throw~ \$3-L;
#X obj 139 287 attacksustainrelease \$1;
#X text 874 123 3: Output receiver name;
#X text 874 103 2: Input array name;
#X obj 139 322 smoothedges -----------;
#X obj 139 359 balance \$1 ------------;
#X obj 679 82 r \$1-stopPlayback;
#X obj 621 38 r \$1-startPlayback;
#X connect 0 0 29 0;
#X connect 2 0 0 0;
#X connect 2 1 3 0;
#X connect 3 0 30 0;
#X connect 4 0 30 0;
#X connect 7 0 2 0;
#X connect 8 0 4 0;
#X connect 8 1 9 0;
#X connect 9 0 7 0;
#X connect 10 0 15 0;
#X connect 10 0 17 0;
#X connect 11 0 12 0;
#X connect 11 0 35 0;
#X connect 12 0 31 0;
#X connect 12 0 32 0;
#X connect 13 0 11 0;
#X connect 14 0 12 1;
#X connect 15 0 16 0;
#X connect 16 0 31 2;
#X connect 16 0 32 2;
#X connect 17 0 31 1;
#X connect 17 0 32 1;
#X connect 18 0 11 1;
#X connect 19 0 10 1;
#X connect 20 0 34 0;
#X connect 21 0 33 0;
#X connect 22 0 23 0;
#X connect 23 0 13 0;
#X connect 23 1 14 0;
#X connect 25 0 26 0;
#X connect 26 0 27 0;
#X connect 26 1 27 1;
#X connect 27 0 21 1;
#X connect 27 0 20 1;
#X connect 28 0 10 0;
#X connect 30 0 1 0;
#X connect 30 1 24 0;
#X connect 31 0 35 1;
#X connect 32 0 35 2;
#X connect 35 0 38 0;
#X connect 35 1 38 1;
#X connect 35 2 38 2;
#X connect 38 0 39 0;
#X connect 38 1 39 1;
#X connect 39 0 20 0;
#X connect 39 1 21 0;
#X connect 40 0 8 0;
#X connect 41 0 7 0;
