#N canvas 0 22 537 471 10;
#X obj 221 51 inlet~ left;
#X obj 303 51 inlet~ right;
#X obj 206 361 outlet~ left;
#X obj 288 361 outlet~ right;
#X obj 206 277 *~;
#X obj 288 278 *~;
#X obj 206 175 cos~;
#X obj 206 133 *~ 0.5;
#X obj 206 154 -~ 0.25;
#X obj 206 216 clip~ 0 1;
#X obj 206 196 *~ 50;
#X obj 88 51 inlet~ readsignal;
#X connect 0 0 4 1;
#X connect 1 0 5 1;
#X connect 4 0 2 0;
#X connect 5 0 3 0;
#X connect 6 0 10 0;
#X connect 7 0 8 0;
#X connect 8 0 6 0;
#X connect 9 0 5 0;
#X connect 9 0 4 0;
#X connect 10 0 9 0;
#X connect 11 0 7 0;
