#N canvas 246 196 1232 639 10;
#X declare -path abs;
#X declare -path ./;
#X declare -path rjlib/rj;
#X text 53 79 IO;
#X text 53 89 ----------------;
#X text 54 488 Player Modules;
#X text 54 498 -----------------;
#X text 53 152 Controller;
#X text 53 162 -----------------;
#N canvas 726 134 813 495 IO 0;
#X obj 39 340 dac~ 1;
#X obj 93 340 dac~ 2;
#X obj 39 248 *~;
#X obj 93 248 *~;
#X obj 39 248 *~;
#X obj 39 248 *~;
#X msg 108 172 1;
#X msg 138 172 0;
#X obj 418 255 soundfiler;
#X obj 418 165 t a b;
#X obj 418 201 symbol;
#X obj 418 280 t b f;
#X obj 418 104 r \$0-loadSample;
#X obj 418 136 openpanel;
#X obj 108 215 lop~ 20;
#X obj 39 35 catch~ MAIN-OUTPUT-L;
#X obj 93 58 catch~ MAIN-OUTPUT-R;
#X msg 418 228 read -resize \$1 IN-ARRAY-L IN-ARRAY-R;
#X obj 445 313 s \$0-sampleLength;
#X obj 108 105 r \$0-startPlayback;
#X obj 138 130 r \$0-stopPlayback;
#X obj 466 201 s \$0-stopPlayback;
#X obj 418 340 s \$0-startPlayback;
#X text 416 69 Sample loading;
#X text 416 81 ---------------;
#X connect 2 0 0 0;
#X connect 3 0 1 0;
#X connect 6 0 14 0;
#X connect 7 0 14 0;
#X connect 8 0 11 0;
#X connect 9 0 10 0;
#X connect 9 1 21 0;
#X connect 10 0 17 0;
#X connect 11 0 22 0;
#X connect 11 1 18 0;
#X connect 12 0 13 0;
#X connect 13 0 9 0;
#X connect 14 0 3 1;
#X connect 14 0 2 1;
#X connect 15 0 2 0;
#X connect 16 0 3 0;
#X connect 17 0 8 0;
#X connect 19 0 6 0;
#X connect 20 0 7 0;
#X restore 56 110 pd IO;
#N canvas 565 67 971 625 volume-envelope 0;
#X obj 348 171 until;
#X msg 348 107 100;
#X obj 348 193 f;
#X obj 374 193 + 1;
#X obj 348 129 t f b;
#X msg 375 150 0;
#X obj 348 482 clip 0 1;
#X obj 502 328 * 100;
#X obj 502 350 int;
#X obj 348 335 moses;
#X obj 375 281 * 100;
#X obj 375 303 int;
#X msg 375 408 1;
#X obj 455 436 /;
#X msg 502 395 100 \$1;
#X obj 502 415 -;
#X msg 455 395 100 \$1;
#X obj 455 415 -;
#X obj 396 107 loadbang;
#X obj 82 164 s \$0-attack;
#X obj 187 191 s \$0-release;
#X obj 160 164 t b f;
#X obj 55 285 s \$0-updateASR;
#X text 54 66 ------------;
#X obj 348 80 r \$0-updateASR;
#X obj 375 256 r \$0-attack;
#X obj 502 256 r \$0-release;
#X obj 396 129 trigger b b;
#X obj 348 502 tabwrite \$0-adsr;
#X obj 472 98 bng 15 250 50 0 empty empty empty 17 7 0 10 -262144 -1
-1;
#X obj 502 282 swap 1;
#X obj 502 304 -;
#X obj 160 83 r \$0-fadeOut;
#X obj 55 83 r \$0-fadeIn;
#X obj 348 357 / 1;
#X obj 375 387 moses 100;
#X obj 348 215 trigger float float;
#N canvas 0 22 450 278 (subpatch) 0;
#X array \$0-adsr 100 float 2;
#X coords 0 1 99 -1 200 140 1;
#X restore 643 76 graph;
#X obj 55 258 del 200;
#X obj 55 213 t b b;
#X msg 82 235 stop;
#X text 346 59 Envelope generator;
#X obj 55 110 clip 0 1;
#X obj 160 110 clip 0 1;
#X obj 55 137 t b f;
#X text 55 56 Input : 0 - 1;
#X connect 0 0 2 0;
#X connect 1 0 4 0;
#X connect 2 0 3 0;
#X connect 2 0 36 0;
#X connect 3 0 2 1;
#X connect 4 0 0 0;
#X connect 4 1 5 0;
#X connect 5 0 2 1;
#X connect 6 0 28 0;
#X connect 7 0 8 0;
#X connect 8 0 14 0;
#X connect 8 0 35 1;
#X connect 9 0 34 0;
#X connect 9 1 35 0;
#X connect 10 0 11 0;
#X connect 11 0 9 1;
#X connect 11 0 34 1;
#X connect 12 0 6 0;
#X connect 13 0 6 0;
#X connect 14 0 15 0;
#X connect 15 0 13 1;
#X connect 16 0 17 0;
#X connect 17 0 13 0;
#X connect 18 0 27 0;
#X connect 21 0 39 0;
#X connect 21 1 20 0;
#X connect 24 0 1 0;
#X connect 25 0 10 0;
#X connect 26 0 30 0;
#X connect 27 0 1 0;
#X connect 29 0 27 0;
#X connect 30 0 31 0;
#X connect 30 1 31 1;
#X connect 31 0 7 0;
#X connect 32 0 43 0;
#X connect 33 0 42 0;
#X connect 34 0 6 0;
#X connect 35 0 12 0;
#X connect 35 1 16 0;
#X connect 36 0 9 0;
#X connect 36 1 28 1;
#X connect 38 0 22 0;
#X connect 39 0 38 0;
#X connect 39 1 40 0;
#X connect 40 0 38 0;
#X connect 42 0 44 0;
#X connect 43 0 21 0;
#X connect 44 0 39 0;
#X connect 44 1 19 0;
#X restore 56 239 pd volume-envelope;
#N canvas 707 241 537 435 start-end-point 0;
#X obj 251 228 f;
#X obj 251 284 -;
#X obj 263 258 t b f;
#X obj 138 213 t f f;
#X obj 251 385 s \$0-setLoopLength;
#X obj 269 195 t b f;
#X obj 251 309 - 1;
#X msg 182 147 0;
#X obj 138 193 *;
#X obj 269 174 *;
#X obj 138 50 r \$0-startPoint;
#X obj 269 50 r \$0-endPoint;
#X obj 138 385 s \$0-setLoopStart;
#X obj 153 102 r \$0-sampleLength;
#X text 136 18 Input: 0 - 1;
#X obj 251 334 max 100;
#X obj 153 124 trigger f b f f;
#X connect 0 0 1 0;
#X connect 1 0 6 0;
#X connect 2 0 1 0;
#X connect 2 1 1 1;
#X connect 3 0 12 0;
#X connect 3 1 2 0;
#X connect 5 0 0 0;
#X connect 5 1 6 1;
#X connect 6 0 15 0;
#X connect 7 0 8 0;
#X connect 8 0 3 0;
#X connect 9 0 5 0;
#X connect 10 0 8 0;
#X connect 11 0 9 0;
#X connect 13 0 16 0;
#X connect 15 0 4 0;
#X connect 16 0 8 1;
#X connect 16 1 7 0;
#X connect 16 2 0 0;
#X connect 16 3 9 1;
#X restore 56 212 pd start-end-point;
#N canvas 184 200 450 300 volume-balance 0;
#X obj 145 126 t f f;
#X obj 145 199 -;
#X obj 145 104 * 2;
#X obj 187 153 min 1;
#X obj 145 153 max 1;
#X msg 145 177 2 \$1;
#X obj 187 215 s \$0-rightLevel;
#X obj 145 241 s \$0-leftLevel;
#X obj 212 107 loadbang;
#X msg 212 129 0.5;
#X obj 145 72 r \$0-balance;
#X text 143 45 Input: 0 - 1;
#X connect 0 0 4 0;
#X connect 0 1 3 0;
#X connect 1 0 7 0;
#X connect 2 0 0 0;
#X connect 3 0 6 0;
#X connect 4 0 5 0;
#X connect 5 0 1 0;
#X connect 8 0 9 0;
#X connect 9 0 2 0;
#X connect 10 0 2 0;
#X restore 56 266 pd volume-balance;
#X text 52 349 ----------------------;
#N canvas 835 156 687 628 bounce-commands 0;
#X obj 106 360 f;
#X obj 311 276 soundfiler;
#X obj 121 339 *;
#X obj 121 244 r \$0-speed;
#X obj 121 313 t b f;
#X msg 121 268 1 \$1;
#X obj 121 290 /;
#X text 73 66 Start bounce;
#X obj 77 108 r \$0-bounceSample;
#X obj 106 217 del 200;
#X obj 77 440 del 300;
#X msg 106 381 \; OUT-ARRAY-L resize \$1 \; OUT-ARRAY-R resize \$1
\;;
#X msg 311 251 write -wave \$1 OUT-ARRAY-L OUT-ARRAY-R;
#X msg 311 304 \; OUT-ARRAY-L const 0 \; OUT-ARRAY-R const 0 \; OUT-ARRAY-L
resize 0 \; OUT-ARRAY-R resize 0 \;;
#X obj 311 227 symbol;
#X obj 344 206 symbol test.wav;
#X obj 156 290 r \$0-sampleLength;
#X text 308 140 Called from [sample-bounce-player] on completion;
#X text 73 80 Input: Filename (e.g. test.wav);
#X obj 135 190 s \$0-stopPlayback;
#X obj 311 160 r \$0-stopBounce;
#X obj 77 462 s \$0-startBounce;
#X obj 77 143 trigger b b b a;
#X connect 0 0 11 0;
#X connect 1 0 13 0;
#X connect 2 0 0 1;
#X connect 3 0 5 0;
#X connect 4 0 2 0;
#X connect 4 1 2 1;
#X connect 5 0 6 0;
#X connect 6 0 4 0;
#X connect 8 0 22 0;
#X connect 9 0 0 0;
#X connect 10 0 21 0;
#X connect 12 0 1 0;
#X connect 14 0 12 0;
#X connect 15 0 14 1;
#X connect 16 0 2 0;
#X connect 20 0 14 0;
#X connect 22 0 10 0;
#X connect 22 1 9 0;
#X connect 22 2 19 0;
#X connect 22 3 15 0;
#X restore 56 293 pd bounce-commands;
#X obj 56 367 table IN-ARRAY-L;
#X obj 56 394 table IN-ARRAY-R;
#X obj 56 421 table OUT-ARRAY-L;
#X obj 56 448 table OUT-ARRAY-R;
#X obj 781 431 hsl 128 15 0 1 0 0 empty \$0-setBalanceSliderValue empty
-2 -8 0 10 -262144 -1 -1 6350 1;
#X obj 499 431 hsl 128 15 0 1 0 0 empty \$0-setPitchSliderValue empty
-2 -8 0 10 -262144 -1 -1 6350 1;
#X text 52 339 Sample arrays;
#X obj 641 431 hsl 128 15 0 1 0 0 empty \$0-setSpeedSliderValue empty
-2 -8 0 10 -262144 -1 -1 4233 1;
#N canvas 768 117 849 421 pitch-time 0;
#X obj 52 247 * 0.001;
#X obj 44 292 /;
#X obj 297 141 * 10;
#X obj 297 163 int;
#X obj 297 187 / 120;
#X obj 297 235 pow;
#X obj 297 277 -;
#X obj 297 319 /;
#X text 323 278 f3;
#X text 323 318 f2;
#X obj 304 256 t b f;
#X obj 305 299 t b f;
#X obj 312 96 loadbang;
#X msg 297 211 2 \$1;
#X obj 52 270 t b f f;
#X text 337 208 [expr (pow(2 \, $f1/120)-$f3)/$f2];
#X obj 44 314 pack f f;
#X obj 297 341 s \$0-phase-phasor;
#X obj 612 136 * 0.001;
#X obj 612 75 loadbang;
#X msg 612 109 50;
#X obj 44 72 r \$0-speed;
#X obj 52 201 r \$0-setLoopLength;
#X obj 44 340 s \$0-read-phasor;
#X obj 348 278 r \$0-chunk-size;
#X obj 612 158 s \$0-chunk-size;
#X obj 709 158 s \$0-speed;
#X obj 52 223 m_sm2ms;
#X msg 709 129 1;
#X obj 333 232 r \$0-speed;
#X msg 312 118 1;
#X obj 297 74 r \$0-pitch;
#X text 338 195 Adapted from;
#X text 295 50 Input: Semitones;
#X text 41 44 (Example 0.5 - 2);
#X text 41 30 Input: Mutiplier;
#X connect 0 0 14 0;
#X connect 1 0 16 0;
#X connect 2 0 3 0;
#X connect 3 0 4 0;
#X connect 4 0 13 0;
#X connect 5 0 6 0;
#X connect 6 0 7 0;
#X connect 7 0 17 0;
#X connect 10 0 6 0;
#X connect 10 1 6 1;
#X connect 11 0 7 0;
#X connect 11 1 7 1;
#X connect 12 0 30 0;
#X connect 13 0 5 0;
#X connect 14 0 1 0;
#X connect 14 1 1 1;
#X connect 14 2 16 1;
#X connect 16 0 23 0;
#X connect 18 0 25 0;
#X connect 19 0 20 0;
#X connect 19 0 28 0;
#X connect 20 0 18 0;
#X connect 21 0 1 0;
#X connect 22 0 27 0;
#X connect 24 0 11 0;
#X connect 27 0 0 0;
#X connect 28 0 26 0;
#X connect 29 0 10 0;
#X connect 30 0 2 0;
#X connect 31 0 2 0;
#X restore 56 185 pd pitch-time;
#X obj 496 481 s \$0-pitch;
#X obj 638 481 s \$0-speed;
#X obj 778 451 s \$0-balance;
#X text 494 410 PITCH;
#X text 635 410 SPEED;
#X text 775 410 BALANCE;
#X obj 499 207 s \$0-startPlayback;
#X obj 629 207 s \$0-stopPlayback;
#X obj 499 127 s \$0-loadSample;
#X obj 629 127 s \$0-bounceSample;
#X obj 499 104 bng 15 250 50 0 empty empty empty 17 7 0 10 -262144
-1 -1;
#X msg 629 103 test.wav;
#X obj 499 184 bng 15 250 50 0 empty empty empty 17 7 0 10 -262144
-1 -1;
#X obj 629 184 bng 15 250 50 0 empty empty empty 17 7 0 10 -262144
-1 -1;
#X obj 641 271 hsl 128 15 1 0 0 0 empty \$0-setEndPointSliderValue
empty -2 -8 0 10 -262144 -1 -1 12700 1;
#X obj 501 271 hsl 128 15 0 1 0 0 empty empty empty -2 -8 0 10 -262144
-1 -1 0 1;
#X text 495 250 LOOP START;
#X text 635 250 LOOP END;
#X obj 498 291 s \$0-startPoint;
#X obj 638 291 s \$0-endPoint;
#X text 495 164 PLAY;
#X text 625 164 PAUSE;
#X obj 501 351 hsl 128 15 0 1 0 0 empty empty empty -2 -8 0 10 -262144
-1 -1 0 1;
#X text 495 330 FADE IN;
#X text 635 330 FADE OUT;
#X text 494 49 INTERFACE;
#X text 494 59 ---------;
#X text 495 84 LOAD NEW;
#X text 625 84 BOUNCE;
#X obj 638 456 m_scale 0 1 0.5 2;
#X obj 496 456 m_scale 0 1 -12 12;
#X obj 498 371 s \$0-fadeIn;
#X obj 638 371 s \$0-fadeOut;
#X obj 908 170 loadbang;
#X obj 908 192 \$0;
#X text 906 150 Defaults;
#X text 777 272 (1 - 0);
#X obj 641 351 hsl 128 15 1 0 0 0 empty \$0-setFadeOutSliderValue empty
-2 -8 0 10 -262144 -1 -1 12700 1;
#X text 777 352 (1 - 0);
#X msg 908 214 \; \$1-setPitchSliderValue 0.5 \; \$1-setSpeedSliderValue
0.333333 \; \$1-setBalanceSliderValue 0.5 \; \$1-setEndPointSliderValue
0 \; \$1-setFadeOutSliderValue 0;
#X text 53 602 RH @ Reactify 2014;
#N canvas 126 69 366 333 init 0;
#X obj 47 53 declare -path abs;
#X obj 47 23 declare -path ./;
#X obj 47 83 declare -path rjlib/rj;
#X restore 56 41 pd init;
#X obj 56 522 sample-player \$0 IN-ARRAY MAIN-OUTPUT;
#X obj 56 551 sample-bounce-player \$0 IN-ARRAY OUT-ARRAY;
#X connect 16 0 23 0;
#X connect 17 0 51 0;
#X connect 19 0 50 0;
#X connect 31 0 29 0;
#X connect 32 0 30 0;
#X connect 33 0 27 0;
#X connect 34 0 28 0;
#X connect 35 0 40 0;
#X connect 36 0 39 0;
#X connect 43 0 52 0;
#X connect 50 0 22 0;
#X connect 51 0 21 0;
#X connect 54 0 55 0;
#X connect 55 0 60 0;
#X connect 58 0 53 0;
