#N canvas 239 253 450 300 10;
#X obj 289 23 tgl 15 0 empty empty empty 17 7 0 10 -262144 -1 -1 1
1;
#X obj 100 197 writesf~;
#X obj 100 93 osc~ 440;
#X msg 175 97 bang;
#X msg 123 162 start;
#X msg 175 162 stop;
#X obj 175 128 del 1000;
#X msg 39 66 open foo.wav;
#X obj 289 52 switch~ 64 1 8;
#X connect 0 0 8 0;
#X connect 2 0 1 0;
#X connect 3 0 4 0;
#X connect 3 0 6 0;
#X connect 4 0 1 0;
#X connect 5 0 1 0;
#X connect 6 0 5 0;
#X connect 7 0 1 0;
